# xmcd
#
# Track frame offsets: 
#        183
#        13800
#        30910
#        42010
#        61385
#        79108
#        96888
#        116035
#        134113
#        149593
#        169018
#        187858
#        209933
#        226973
#
# Disc length: 3267 seconds
#
# Revision: 6
# Processed by: cddbd v1.5.2PL0 Copyright (c) Steve Scherf et al.
# Submitted via: ExactAudioCopy v1.3
#
DISCID=c60cc10e
DTITLE=譚詠麟 - 繼續浪漫
DYEAR=1988
DGENRE=Pop
TTITLE0=小珊瑚
TTITLE1=愛的替身
TTITLE2=愛是這樣甜
TTITLE3=午夜麗人
TTITLE4=誰可改變
TTITLE5=幸運星
TTITLE6=暴風女神Lorele
TTITLE7=第一滴淚
TTITLE8=曾經
TTITLE9=癡心的廢墟
TTITLE10=Don't Say Goodby
TTITLE11=不見不散
TTITLE12=80歲後
TTITLE13=水中花
EXTD=YEAR: 1988
EXTT0=
EXTT1=
EXTT2=
EXTT3=
EXTT4=
EXTT5=
EXTT6=
EXTT7=
EXTT8=
EXTT9=
EXTT10=
EXTT11=
EXTT12=
EXTT13=
PLAYORDER=
